<?xml version="1.0" standalone="no"?>
<!DOCTYPE svg PUBLIC "-//W3C//DTD SVG 20010904//EN"
 "http://www.w3.org/TR/2001/REC-SVG-20010904/DTD/svg10.dtd">
<svg version="1.0" xmlns="http://www.w3.org/2000/svg"
 width="816.000000pt" height="816.000000pt" viewBox="0 0 816.000000 816.000000"
 preserveAspectRatio="xMidYMid meet">
<metadata>
Created by potrace 1.11, written by Peter Selinger 2001-2013
</metadata>
<g transform="translate(0.000000,816.000000) scale(0.100000,-0.100000)"
fill="#000000" stroke="none">
<path d="M3279 8156 c-2 -2 -43 -7 -90 -10 -47 -4 -94 -8 -105 -10 -10 -2 -46
-7 -79 -11 -32 -4 -68 -9 -80 -11 -11 -2 -45 -8 -75 -14 -83 -15 -89 -16 -180
-40 -47 -12 -93 -24 -103 -26 -10 -2 -69 -20 -130 -40 -531 -172 -998 -457
-1387 -844 -131 -130 -164 -167 -274 -303 -72 -91 -180 -241 -221 -309 -217
-359 -340 -648 -431 -1011 -73 -291 -99 -505 -99 -827 0 -257 12 -421 46 -605
6 -33 13 -71 15 -85 14 -82 71 -293 108 -406 105 -313 228 -564 411 -839 132
-199 246 -337 425 -515 183 -183 207 -205 367 -327 260 -197 531 -350 828
-466 420 -164 824 -240 1280 -241 110 0 343 12 354 18 3 2 40 7 80 10 41 4 77
9 80 11 4 1 28 6 55 9 148 20 502 114 621 165 11 5 67 28 125 51 124 50 303
138 426 211 115 67 359 234 394 269 3 3 26 22 51 42 l46 37 345 -352 c190
-194 428 -436 529 -539 101 -102 369 -374 594 -603 504 -513 530 -539 541
-534 5 2 98 93 207 201 l198 197 -225 228 c-123 125 -306 311 -406 413 -100
102 -374 381 -610 620 -235 239 -476 485 -535 545 -59 61 -134 138 -167 171
l-60 62 61 77 c293 369 503 778 632 1230 22 77 42 153 45 170 3 16 11 62 19
100 8 39 17 88 20 110 4 22 10 67 15 100 19 125 25 237 25 450 0 216 -9 360
-30 490 -2 17 -7 53 -11 80 -3 28 -8 53 -10 56 -2 3 -6 21 -9 40 -3 19 -8 48
-12 64 -4 17 -7 32 -8 35 -1 3 -5 21 -9 40 -65 289 -211 654 -379 945 -53 92
-193 299 -264 388 -425 541 -991 940 -1639 1158 -127 42 -341 100 -419 113
-16 3 -70 12 -120 20 -49 8 -115 18 -145 21 -30 4 -68 9 -85 11 -35 5 -541 14
-546 10z m527 -589 c12 -3 45 -8 75 -12 180 -22 514 -105 624 -155 11 -5 56
-23 100 -41 109 -44 307 -145 400 -203 614 -387 1046 -942 1255 -1612 47 -150
87 -331 105 -474 20 -157 23 -219 20 -430 -2 -129 -5 -244 -8 -255 -3 -11 -8
-47 -11 -80 -21 -181 -97 -473 -173 -665 -163 -411 -390 -748 -708 -1051 -306
-291 -670 -511 -1065 -642 -158 -53 -320 -94 -435 -111 -53 -8 -119 -18 -140
-22 -89 -17 -449 -23 -590 -10 -542 49 -1043 237 -1472 553 -185 136 -381 319
-513 482 -19 23 -45 55 -58 69 -109 128 -274 406 -376 635 -57 126 -154 427
-169 522 -3 17 -8 41 -11 55 -8 36 -21 112 -42 255 -10 72 -12 498 -3 585 9
80 43 300 53 345 95 415 269 790 525 1130 179 239 448 491 706 662 394 261
873 433 1310 469 44 3 82 8 84 10 6 6 491 -3 517 -9z"/>
<path d="M2160 6581 c-84 -26 -169 -99 -211 -181 -34 -66 -33 -175 2 -250 70
-147 207 -206 353 -151 32 12 62 19 67 16 12 -8 11 -91 -1 -192 -20 -160 -126
-453 -287 -793 -140 -296 -221 -515 -264 -710 -20 -88 -23 -134 -24 -290 0
-204 11 -265 77 -415 85 -196 263 -393 494 -549 146 -98 144 -95 144 -210 0
-76 27 -127 88 -171 l44 -30 784 -3 c771 -3 786 -3 817 17 96 60 117 100 117
218 l0 88 70 43 c270 167 478 389 569 607 62 148 74 212 74 400 0 298 -56 501
-270 965 -150 327 -233 537 -279 705 -28 101 -44 307 -26 319 6 3 34 -3 63
-14 64 -25 150 -28 201 -7 56 23 124 92 155 156 56 118 28 258 -71 349 -69 64
-119 85 -211 90 -249 13 -467 -196 -546 -525 l-10 -43 -648 0 -647 0 -11 59
c-24 126 -93 257 -188 356 -71 73 -122 107 -204 135 -62 20 -171 26 -221 11z
m675 -1843 c-5 -486 -9 -908 -10 -938 -2 -30 -3 -96 -4 -147 -1 -107 6 -104
-106 -39 -103 60 -221 182 -272 281 -70 136 -85 202 -87 383 -1 86 2 183 6
214 11 86 68 250 193 562 62 154 134 343 160 418 48 139 52 144 104 147 l23 1
-7 -882z m261 -20 c-6 -867 -12 -1184 -22 -1219 -4 -14 -11 -15 -41 -9 -20 5
-39 14 -43 20 -4 6 -8 264 -9 573 -1 309 -4 781 -7 1050 l-5 487 67 0 67 0 -7
-902z m271 440 c-4 -255 -7 -743 -7 -1085 l-1 -623 -59 0 -60 0 0 1085 0 1085
66 0 67 0 -6 -462z m259 -260 c-3 -398 -6 -879 -7 -1069 0 -190 -4 -350 -7
-356 -4 -5 -28 -13 -54 -16 l-48 -7 -1 283 c0 155 -1 643 -2 1085 l-2 802 64
0 64 0 -7 -722z m262 -332 c-2 -580 -6 -1057 -10 -1061 -3 -4 -24 -9 -46 -12
-32 -4 -40 -2 -46 13 -4 11 -10 490 -13 1067 l-6 1047 62 0 62 0 -3 -1054z
m211 1035 c10 -10 35 -70 56 -132 21 -63 84 -231 142 -373 108 -269 172 -446
199 -548 22 -87 22 -390 -1 -478 -42 -162 -134 -303 -262 -400 -66 -50 -169
-108 -177 -100 -11 11 -15 227 -22 1118 l-7 932 26 0 c15 0 35 -8 46 -19z"/>
</g>
</svg>
